<svg width="170" height="44" viewBox="0 0 170 44" fill="none" xmlns="http://www.w3.org/2000/svg">
<path d="M60.6645 29.2304H67.0479C66.5321 29.7353 66.0008 30.2263 65.4537 30.7033C60.5639 34.9941 55.6003 39.2035 50.6613 43.4415C49.7915 44.19 49.0828 44.1834 48.2018 43.4415C44.2734 40.1083 40.3383 36.784 36.4278 33.431C34.8493 32.0792 33.2976 30.6967 31.8398 29.2304H38.1942V16.7432C39.3903 18.5198 40.5798 20.182 41.7492 21.8068C43.8263 24.7084 45.9749 27.7091 48.0744 31.258L49.4271 33.5455L50.7686 31.258C52.8681 27.7091 55.0167 24.7084 57.0938 21.8068C58.2632 20.1754 59.4527 18.5044 60.6489 16.7432L60.6645 29.2304Z" fill="#A30621"/>
<path d="M71.692 23.6992C71.1241 24.5476 70.5196 25.3636 69.8787 26.1474H63.7972V5.65083L60.8794 10.5845C58.7821 14.1334 56.6312 17.1342 54.5541 20.0358C52.8772 22.3783 51.1556 24.7824 49.4363 27.5035C47.7146 24.7824 45.993 22.3783 44.3162 20.0358C42.239 17.1342 40.0904 14.1334 37.9909 10.5845L35.0843 5.65303V26.1474H29.0251C28.736 25.7995 28.4535 25.4465 28.1777 25.0884C26.5836 23.0211 25.2912 20.791 24.6652 18.246C24.4282 17.2773 24.3164 16.2778 24.1465 15.2915V13.2418C24.1778 13.0525 24.218 12.8653 24.2404 12.6738C24.701 8.57891 26.36 5.08723 29.7585 2.58185C33.0899 0.122711 36.8462 -0.581787 40.8796 0.477163C43.8265 1.25211 46.0802 3.05519 47.8868 5.41967C48.4368 6.13738 48.9198 6.90352 49.4184 7.62123C50.1093 6.66795 50.7398 5.67945 51.491 4.78782C53.8297 2.01386 56.7699 0.270216 60.4881 0.036851C63.3742 -0.136698 66.2379 0.631647 68.6357 2.22288C71.0334 3.81411 72.8314 6.13943 73.7512 8.83869C75.5846 14.1224 74.7909 19.0671 71.692 23.6992Z" fill="#D8293D"/>
<mask id="mask0_885_3088" style="mask-type:alpha" maskUnits="userSpaceOnUse" x="0" y="3" width="170" height="30">
<rect y="3.24139" width="170" height="29.1135" fill="#D9D9D9"/>
</mask>
<g mask="url(#mask0_885_3088)">
<path d="M19.171 26.4127H9.64627L8.32265 30.2566C8.2629 30.4308 8.14927 30.5822 7.9977 30.6896C7.84613 30.797 7.66423 30.855 7.4775 30.8554H2.8761C2.73271 30.855 2.59153 30.8207 2.46444 30.7553C2.33736 30.6898 2.22811 30.5953 2.14591 30.4796C2.06371 30.3639 2.01097 30.2305 1.99213 30.0905C1.97329 29.9505 1.9889 29.8082 2.03765 29.6754L10.3662 6.99932C10.507 6.61602 10.7643 6.28478 11.1032 6.05075C11.4421 5.81673 11.8461 5.69131 12.26 5.69159H16.64C17.054 5.69131 17.4579 5.81673 17.7968 6.05075C18.1357 6.28478 18.3931 6.61602 18.5338 6.99932L26.8624 29.6754C26.9111 29.8082 26.9267 29.9505 26.9079 30.0905C26.8891 30.2305 26.8363 30.3639 26.7541 30.4796C26.6719 30.5953 26.5627 30.6898 26.4356 30.7553C26.3085 30.8207 26.1673 30.855 26.0239 30.8554H21.3487C21.162 30.855 20.9801 30.797 20.8285 30.6896C20.677 30.5822 20.5633 30.4308 20.5036 30.2566L19.171 26.4127ZM17.5701 21.6815L14.4042 12.4724L11.274 21.6815H17.5701Z" fill="#0E2657"/>
<path d="M95.8617 20.1233C96.747 21.2302 97.2204 22.6024 97.2032 24.0113C97.2032 26.113 96.4579 27.7796 94.9673 29.011C93.4768 30.2424 91.3959 30.8574 88.7248 30.8559H77.948C77.6515 30.8559 77.3672 30.7399 77.1575 30.5335C76.9479 30.3271 76.8301 30.0471 76.8301 29.7551V6.79725C76.8301 6.50531 76.9479 6.22532 77.1575 6.01888C77.3672 5.81244 77.6515 5.69647 77.948 5.69647H88.3336C90.9301 5.69647 92.9625 6.28355 94.4307 7.45772C95.8989 8.63189 96.6331 10.2207 96.6331 12.2241C96.6331 13.7065 96.2388 14.9372 95.4503 15.9161C94.6456 16.9061 93.5438 17.6204 92.3022 17.957C93.7158 18.2312 94.9805 19.0009 95.8617 20.1233ZM83.0502 15.8765H87.1418C88.1614 15.8765 88.9439 15.6563 89.4895 15.216C90.035 14.7757 90.3078 14.1248 90.3078 13.2632C90.3078 12.4032 90.035 11.7464 89.4895 11.2928C88.9439 10.8393 88.1614 10.6118 87.1418 10.6104H83.0569L83.0502 15.8765ZM90.0574 25.2111C90.6253 24.7458 90.91 24.0714 90.9115 23.1879C90.9314 22.7974 90.8613 22.4076 90.7064 22.0477C90.5516 21.6878 90.3159 21.367 90.0172 21.1096C89.4209 20.6076 88.6011 20.3567 87.5577 20.3567H83.0569V25.9112H87.6427C88.6861 25.9112 89.4932 25.6778 90.0641 25.2111H90.0574Z" fill="#0E2657"/>
<path d="M104.686 5.70045C104.925 5.70334 105.152 5.79856 105.319 5.96546C105.487 6.13236 105.581 6.3575 105.581 6.59208V20.7547C105.581 22.2591 105.953 23.4179 106.699 24.231C107.444 25.0441 108.548 25.4499 110.01 25.4484C111.465 25.4484 112.583 25.0426 113.364 24.231C114.145 23.4193 114.538 22.2606 114.544 20.7547V6.59208C114.543 6.47458 114.565 6.35797 114.61 6.24912C114.655 6.14028 114.722 6.0414 114.806 5.95831C114.89 5.87522 114.991 5.8096 115.101 5.76531C115.212 5.72102 115.33 5.69897 115.45 5.70045H119.861C119.979 5.70044 120.097 5.72358 120.206 5.76852C120.315 5.81346 120.414 5.87932 120.497 5.96226C120.581 6.0452 120.646 6.14358 120.691 6.2517C120.735 6.35981 120.757 6.47552 120.755 6.59208V20.7151C120.755 22.9607 120.27 24.8599 119.3 26.4127C118.368 27.9311 117.009 29.1509 115.387 29.9242C113.682 30.725 111.812 31.128 109.923 31.102C108.054 31.1344 106.203 30.7355 104.519 29.9374C102.932 29.1628 101.619 27.9352 100.751 26.4149C99.827 24.8504 99.3657 22.9423 99.3672 20.6909V6.59208C99.3672 6.47481 99.3907 6.35868 99.4363 6.25036C99.482 6.14204 99.5489 6.04365 99.6332 5.96082C99.7175 5.878 99.8176 5.81237 99.9277 5.76769C100.038 5.72301 100.156 5.70016 100.275 5.70045H104.686Z" fill="#0E2657"/>
<path d="M130.238 26.1243H137.502C137.74 26.1243 137.967 26.217 138.135 26.3822C138.302 26.5473 138.397 26.7713 138.397 27.0049V29.988C138.397 30.2216 138.302 30.4455 138.135 30.6107C137.967 30.7758 137.74 30.8686 137.502 30.8686H124.016V6.45992C124.016 6.25848 124.097 6.06529 124.242 5.92285C124.386 5.78041 124.582 5.70038 124.787 5.70038H129.467C129.568 5.70009 129.668 5.71954 129.762 5.7576C129.856 5.79567 129.941 5.85161 130.013 5.9222C130.084 5.99278 130.141 6.07663 130.18 6.16891C130.219 6.26119 130.238 6.3601 130.238 6.45992V26.1243Z" fill="#0E2657"/>
<path d="M157.498 26.4127H147.958L146.562 30.4679C146.524 30.5808 146.45 30.6788 146.352 30.7483C146.254 30.8178 146.136 30.8553 146.015 30.8554H140.738C140.645 30.8556 140.554 30.8337 140.471 30.7917C140.389 30.7496 140.318 30.6886 140.265 30.6139C140.212 30.5391 140.177 30.4528 140.165 30.3622C140.153 30.2717 140.163 30.1796 140.195 30.0937L148.848 6.53699C148.939 6.28926 149.105 6.07522 149.325 5.92397C149.544 5.77272 149.805 5.69158 150.073 5.69159H155.439C155.706 5.69158 155.968 5.77272 156.187 5.92397C156.406 6.07522 156.573 6.28926 156.664 6.53699L165.317 30.0937C165.348 30.1796 165.359 30.2717 165.346 30.3622C165.334 30.4528 165.3 30.5391 165.247 30.6139C165.193 30.6886 165.122 30.7496 165.04 30.7917C164.958 30.8337 164.866 30.8556 164.774 30.8554H159.423C159.302 30.8551 159.185 30.8176 159.087 30.7481C158.989 30.6786 158.916 30.5806 158.878 30.4679L157.498 26.4127ZM155.897 21.6815L152.731 12.4724L149.601 21.6815H155.897Z" fill="#0E2657"/>
</g>
</svg>
