<svg width="58" height="54" viewBox="0 0 58 54" fill="none" xmlns="http://www.w3.org/2000/svg">
<path d="M54.4583 32.3041C53.708 32.3041 52.9884 32.5803 52.4579 33.072C51.9274 33.5637 51.6293 34.2307 51.6293 34.9261V45.414C51.6293 46.1094 51.3313 46.7764 50.8007 47.2681C50.2702 47.7598 49.5506 48.036 48.8003 48.036H9.19408C8.44378 48.036 7.72421 47.7598 7.19366 47.2681C6.66312 46.7764 6.36506 46.1094 6.36506 45.414V34.9261C6.36506 34.2307 6.06701 33.5637 5.53646 33.072C5.00592 32.5803 4.28635 32.3041 3.53605 32.3041C2.78575 32.3041 2.06617 32.5803 1.53563 33.072C1.00509 33.5637 0.707031 34.2307 0.707031 34.9261V45.414C0.707031 47.5002 1.6012 49.501 3.19283 50.9761C4.78446 52.4513 6.94317 53.28 9.19408 53.28H48.8003C51.0512 53.28 53.2099 52.4513 54.8015 50.9761C56.3932 49.501 57.2873 47.5002 57.2873 45.414V34.9261C57.2873 34.2307 56.9893 33.5637 56.4587 33.072C55.9282 32.5803 55.2086 32.3041 54.4583 32.3041ZM26.9886 36.7877C27.2576 37.0264 27.5749 37.2135 27.9222 37.3383C28.2608 37.477 28.627 37.5487 28.9972 37.5487C29.3674 37.5487 29.7336 37.477 30.0722 37.3383C30.4195 37.2135 30.7367 37.0264 31.0058 36.7877L42.3218 26.2997C42.8546 25.806 43.1538 25.1363 43.1538 24.4381C43.1538 23.7398 42.8546 23.0702 42.3218 22.5764C41.7891 22.0827 41.0666 21.8053 40.3133 21.8053C39.5599 21.8053 38.8374 22.0827 38.3046 22.5764L31.8262 28.607V3.46209C31.8262 2.76669 31.5281 2.09977 30.9976 1.60805C30.4671 1.11633 29.7475 0.840088 28.9972 0.840088C28.2469 0.840088 27.5273 1.11633 26.9968 1.60805C26.4662 2.09977 26.1682 2.76669 26.1682 3.46209V28.607L19.6897 22.5764C19.426 22.332 19.1128 22.138 18.7682 22.0057C18.4235 21.8734 18.0542 21.8053 17.6811 21.8053C17.3081 21.8053 16.9387 21.8734 16.5941 22.0057C16.2494 22.138 15.9363 22.332 15.6725 22.5764C15.4088 22.8209 15.1995 23.1111 15.0568 23.4306C14.914 23.75 14.8405 24.0923 14.8405 24.4381C14.8405 24.7838 14.914 25.1261 15.0568 25.4456C15.1995 25.765 15.4088 26.0552 15.6725 26.2997L26.9886 36.7877Z" fill="black"/>
</svg>
