<svg width="43" height="61" viewBox="0 0 43 61" fill="none" xmlns="http://www.w3.org/2000/svg">
<path fill-rule="evenodd" clip-rule="evenodd" d="M11.3364 5.15045C11.3364 2.69251 13.3223 0.699951 15.7721 0.699951H27.6008C30.0506 0.699951 32.0365 2.69251 32.0365 5.15045H37.9508C40.4007 5.15045 42.3866 7.14301 42.3866 9.60094V55.5894C42.3866 58.0474 40.4007 60.0399 37.9508 60.0399H5.42207C2.97221 60.0399 0.986328 58.0474 0.986328 55.5894V9.60094C0.986328 7.14301 2.97221 5.15045 5.42207 5.15045H11.3364ZM11.3364 8.11744H5.42207C4.60545 8.11744 3.94349 8.78164 3.94349 9.60094V25.9025H12.2717L17.2813 16.9671L20.4115 27.9592L24.242 23.018H32.3581C33.1747 23.018 33.8367 23.6822 33.8367 24.5015C33.8367 25.3208 33.1747 25.985 32.3581 25.985H25.6884L19.1687 34.3951L16.3847 24.6184L14.0012 28.8695H3.94349V55.5894C3.94349 56.4087 4.60545 57.0729 5.42207 57.0729H37.9508C38.7674 57.0729 39.4294 56.4087 39.4294 55.5894V9.60094C39.4294 8.78162 38.7674 8.11744 37.9508 8.11744H32.0365C32.0365 10.5755 30.0506 12.5679 27.6008 12.5679H15.7721C13.3223 12.5679 11.3364 10.5755 11.3364 8.11744ZM15.7721 3.66695C14.9555 3.66695 14.2935 4.33114 14.2935 5.15045V8.11744C14.2935 8.93675 14.9555 9.60094 15.7721 9.60094H27.6008C28.4174 9.60094 29.0793 8.93675 29.0793 8.11744V5.15045C29.0793 4.33114 28.4174 3.66695 27.6008 3.66695H15.7721ZM9.85781 40.7544C9.85781 39.9351 10.5198 39.2709 11.3364 39.2709H32.0365C32.8531 39.2709 33.5151 39.9351 33.5151 40.7544C33.5151 41.5737 32.8531 42.2379 32.0365 42.2379H11.3364C10.5198 42.2379 9.85781 41.5737 9.85781 40.7544ZM9.85781 49.6554C9.85781 48.8361 10.5198 48.1719 11.3364 48.1719H20.2079C21.0245 48.1719 21.6864 48.8361 21.6864 49.6554C21.6864 50.4747 21.0245 51.1389 20.2079 51.1389H11.3364C10.5198 51.1389 9.85781 50.4747 9.85781 49.6554Z" fill="#333333"/>
</svg>
