<svg width="56" height="48" viewBox="0 0 56 48" fill="none" xmlns="http://www.w3.org/2000/svg">
<path opacity="0.4" d="M48.4851 17.3507C47.5018 17.3507 46.701 16.5409 46.6879 15.5331V12.8805C46.7199 10.6289 45.8761 8.45681 44.343 6.8439C42.8098 5.231 40.7134 4.30992 38.5165 4.28405H36.5995C35.6069 4.28405 34.8023 3.45931 34.8023 2.44195C34.8023 1.42459 35.6069 0.599854 36.5995 0.599854H38.5165C45.0775 0.680557 50.3547 6.15522 50.3542 12.8805V15.5086C50.3671 15.9925 50.1886 16.4613 49.8591 16.8083C49.5296 17.1552 49.0773 17.3508 48.6049 17.3507H48.4851ZM6.55004 17.3508C6.07561 17.3572 5.6184 17.1686 5.28064 16.8271C4.94289 16.4855 4.75278 16.0194 4.75283 15.5331V12.8805C4.71439 9.6371 5.94458 6.51296 8.16875 4.20555C10.3929 1.89815 13.4259 0.599614 16.5905 0.599854H18.5555C19.548 0.599854 20.3527 1.42459 20.3527 2.44195C20.3527 3.45931 19.548 4.28405 18.5555 4.28405H16.6145C14.3989 4.2771 12.2739 5.18456 10.7186 6.80182C9.16329 8.41908 8.30861 10.61 8.34726 12.8805V15.5331C8.33415 16.5409 7.53334 17.3508 6.55004 17.3508Z" fill="#200E32"/>
<path d="M50.5075 28.412V35.4009C50.4303 42.1245 45.1857 47.5671 38.6677 47.6876H36.7145C36.023 47.7704 35.3468 47.4364 34.9758 46.8289C34.6047 46.2213 34.6047 45.448 34.9758 44.8405C35.3468 44.2329 36.023 43.8989 36.7145 43.9817H38.6677C43.2662 43.968 46.9869 40.1191 46.9869 35.3761V28.412H50.5075ZM20.3896 45.8471C20.3766 46.8717 19.5745 47.6991 18.5811 47.7125H16.6038C10.0015 47.6308 4.69116 42.0869 4.69163 35.2766V28.412H8.30867V35.4009C8.3086 40.1343 12.0147 43.9792 16.6038 44.0066H18.5811C19.0585 43.9999 19.5186 44.1909 19.8584 44.5368C20.1983 44.8827 20.3896 45.3546 20.3896 45.8471ZM55.0167 26.5466C55.0167 27.5768 54.207 28.412 53.2082 28.412H1.89446C0.895639 28.412 0.0859375 27.5768 0.0859375 26.5466C0.0859375 25.5163 0.895639 24.6812 1.89446 24.6812H53.1359C53.6279 24.6609 54.1067 24.8484 54.4617 25.2004C54.8167 25.5525 55.0167 26.0386 55.0167 26.5466Z" fill="#200E32"/>
<path opacity="0.4" d="M39.9895 20.3049V17.0319C39.9895 15.4505 39.3985 13.9339 38.3465 12.8157C37.2944 11.6975 35.8675 11.0693 34.3797 11.0693H20.7251C17.6268 11.0693 15.1152 13.7388 15.1152 17.0319V20.3049C15.1276 20.6917 15.4197 21.0022 15.7836 21.0153H39.3211C39.6851 21.0022 39.9772 20.6917 39.9895 20.3049Z" fill="#200E32"/>
<path d="M39.9895 28.344V31.2163C39.9895 34.5448 37.4779 37.243 34.3797 37.243H20.7251C17.6268 37.243 15.1152 34.5448 15.1152 31.2163V28.344H39.9895Z" fill="#200E32"/>
</svg>
